<?xml version="1.0" encoding="UTF-8"?>
<svg id="CENTER" xmlns="http://www.w3.org/2000/svg" version="1.1" xmlns:xlink="http://www.w3.org/1999/xlink" viewBox="0 0 1000 1000">
  <!-- Generator: Adobe Illustrator 30.8.1, SVG Export Plug-In . SVG Version: 2.1.4 Build 1)  -->
  <defs>
    <style>
      .st0 {
        fill: url(#Degradado_sin_nombre_529);
      }

      .st1 {
        fill: url(#Degradado_sin_nombre_729);
      }

      .st2 {
        fill: url(#Degradado_sin_nombre_484);
      }
    </style>
    <linearGradient id="Degradado_sin_nombre_729" data-name="Degradado sin nombre 729" x1="79.865" y1="738.42" x2="436.809" y2="532.339" gradientUnits="userSpaceOnUse">
      <stop offset=".345" stop-color="#4f46e5"/>
      <stop offset=".436" stop-color="#5349e4"/>
      <stop offset=".535" stop-color="#6054e4"/>
      <stop offset=".638" stop-color="#7666e3"/>
      <stop offset=".745" stop-color="#957fe3"/>
      <stop offset=".853" stop-color="#bc9fe1"/>
      <stop offset=".962" stop-color="#ecc6e0"/>
      <stop offset="1" stop-color="#ffd6e0"/>
    </linearGradient>
    <linearGradient id="Degradado_sin_nombre_484" data-name="Degradado sin nombre 484" x1="588.301" y1="442.856" x2="395.997" y2="109.776" gradientUnits="userSpaceOnUse">
      <stop offset="0" stop-color="#ffd6e0"/>
      <stop offset=".024" stop-color="#f6ccde"/>
      <stop offset=".157" stop-color="#cb9ad4"/>
      <stop offset=".294" stop-color="#a66fcb"/>
      <stop offset=".431" stop-color="#874cc4"/>
      <stop offset=".569" stop-color="#7031be"/>
      <stop offset=".709" stop-color="#5f1ebb"/>
      <stop offset=".851" stop-color="#5512b8"/>
      <stop offset="1" stop-color="#520fb8"/>
    </linearGradient>
    <linearGradient id="Degradado_sin_nombre_529" data-name="Degradado sin nombre 529" x1="839.769" y1="775.662" x2="558.35" y2="494.243" gradientUnits="userSpaceOnUse">
      <stop offset="0" stop-color="#ffef26"/>
      <stop offset=".113" stop-color="#fee926"/>
      <stop offset=".263" stop-color="#fbd826"/>
      <stop offset=".434" stop-color="#f7bc27"/>
      <stop offset=".621" stop-color="#f19529"/>
      <stop offset=".819" stop-color="#ea642b"/>
      <stop offset="1" stop-color="#e3312d"/>
    </linearGradient>
  </defs>
  <path class="st1" d="M410.184,557.521c-10.251-5.676-16.489-16.479-16.279-28.194l1.078-60.081-92.709-51.448c-16.349-9.073-36.26-8.904-52.452.445l-147.717,85.284c-16.193,9.349-26.294,26.507-26.612,45.202l-2.753,162.167c-.334,19.665,10.201,37.912,27.398,47.455l141.817,78.7c16.349,9.073,36.26,8.904,52.452-.445l147.717-85.284c16.193-9.349,26.294-26.507,26.612-45.202l1.954-115.097-60.506-33.502Z"/>
  <path class="st2" d="M664.126,145.39l-141.817-78.7c-16.349-9.073-36.26-8.904-52.452.445l-147.717,85.284c-16.193,9.349-26.294,26.507-26.612,45.202l-2.753,162.167c-.334,19.665,10.201,37.912,27.398,47.455l75.348,41.813c1.377-9.486,7.064-18.021,15.461-22.87l65.523-37.829c4.794-2.768,10.255-4.231,15.791-4.231,5.337,0,10.627,1.367,15.297,3.953l63.007,34.886c8.138,4.506,13.732,12.248,15.593,21.108l75.966-43.859c16.193-9.349,26.294-26.507,26.612-45.202l2.753-162.167c.334-19.665-10.201-37.912-27.398-47.455Z"/>
  <path class="st0" d="M863.508,496.498l-141.817-78.7c-16.349-9.073-36.26-8.904-52.452.445l-82.547,47.658-1.106,61.615c-.197,11.012-6.245,21.274-15.784,26.783l-65.523,37.829c-3.156,1.822-6.603,3.066-10.168,3.712l-1.953,115.055c-.334,19.665,10.201,37.912,27.398,47.455l141.817,78.7c16.349,9.073,36.26,8.904,52.452-.445l147.717-85.284c16.193-9.349,26.294-26.507,26.612-45.202l2.753-162.167c.334-19.665-10.201-37.912-27.398-47.455Z"/>
</svg>